<svg width="24" height="24" viewBox="0 0 24 24" fill="none" xmlns="http://www.w3.org/2000/svg">
<g clip-path="url(#clip0_22_2435)">
<rect width="24" height="24" fill="url(#paint0_radial_22_2435)"/>
<path d="M8.55989 3.68994C7.46797 4.14193 6.47576 4.80454 5.63989 5.63994" stroke="black" stroke-width="2" stroke-linecap="round" stroke-linejoin="round"/>
<path d="M3.69 8.56006C3.23656 9.65036 3.0021 10.8192 3 12.0001" stroke="black" stroke-width="2" stroke-linecap="round" stroke-linejoin="round"/>
<path d="M3.68994 15.4399C4.14193 16.5319 4.80454 17.5241 5.63994 18.3599" stroke="black" stroke-width="2" stroke-linecap="round" stroke-linejoin="round"/>
<path d="M8.56006 20.3101C9.65036 20.7635 10.8192 20.998 12.0001 21.0001" stroke="black" stroke-width="2" stroke-linecap="round" stroke-linejoin="round"/>
<path d="M15.4399 20.3099C16.5319 19.8579 17.5241 19.1953 18.3599 18.3599" stroke="black" stroke-width="2" stroke-linecap="round" stroke-linejoin="round"/>
<path d="M20.3101 15.44C20.7635 14.3497 20.998 13.1808 21.0001 12" stroke="black" stroke-width="2" stroke-linecap="round" stroke-linejoin="round"/>
<path d="M20.3101 8.56014C19.8581 7.46822 19.1955 6.47601 18.3601 5.64014" stroke="black" stroke-width="2" stroke-linecap="round" stroke-linejoin="round"/>
<path d="M15.44 3.69C14.3497 3.23656 13.1808 3.0021 12 3" stroke="black" stroke-width="2" stroke-linecap="round" stroke-linejoin="round"/>
<path d="M9 12L11 14L15 10" stroke="black" stroke-width="2" stroke-linecap="round" stroke-linejoin="round"/>
</g>
<defs>
<radialGradient id="paint0_radial_22_2435" cx="0" cy="0" r="1" gradientUnits="userSpaceOnUse" gradientTransform="translate(12 12) rotate(90) scale(12)">
<stop stop-color="#C8FFC5" stop-opacity="0.57"/>
<stop offset="1" stop-color="#DEFFBF" stop-opacity="0"/>
</radialGradient>
<clipPath id="clip0_22_2435">
<rect width="24" height="24" fill="white"/>
</clipPath>
</defs>
</svg>
